<svg width="20" height="18" viewBox="0 0 20 18" fill="none" xmlns="http://www.w3.org/2000/svg">
<path d="M7.75 16.5391V10.8984C7.75 10.7161 7.80469 10.5703 7.91406 10.4609C8.02865 10.3516 8.17708 10.2969 8.35938 10.2969H11.6406C11.8229 10.2969 11.9688 10.3516 12.0781 10.4609C12.1875 10.5703 12.2422 10.7161 12.2422 10.8984V16.5391H7.75ZM4.69531 17.5547C4.10156 17.5547 3.63802 17.3932 3.30469 17.0703C2.97135 16.7474 2.80469 16.2995 2.80469 15.7266V7.0625L4.34375 6.01562V15.25C4.34375 15.5 4.40885 15.6901 4.53906 15.8203C4.66927 15.9557 4.85677 16.0234 5.10156 16.0234H14.8594C15.1042 16.0234 15.2891 15.9557 15.4141 15.8203C15.5443 15.6901 15.6094 15.5 15.6094 15.25V6.01562L17.1406 7.0625V15.7266C17.1406 16.2995 16.9766 16.7474 16.6484 17.0703C16.3203 17.3932 15.8594 17.5547 15.2656 17.5547H4.69531ZM0.460938 8.73438C0.460938 8.48958 0.5625 8.28385 0.765625 8.11719L8.90625 1.28125C9.24479 1 9.61198 0.859375 10.0078 0.859375C10.4036 0.859375 10.7682 1 11.1016 1.28125L19.2344 8.11719C19.4375 8.28385 19.5391 8.4974 19.5391 8.75781C19.5391 8.98177 19.4609 9.15885 19.3047 9.28906C19.1536 9.41927 18.9661 9.48438 18.7422 9.48438C18.6224 9.48438 18.5078 9.45573 18.3984 9.39844C18.2891 9.34115 18.1875 9.27604 18.0938 9.20312L10.3438 2.69531C10.2344 2.60156 10.1224 2.55469 10.0078 2.55469C9.89323 2.55469 9.78125 2.60156 9.67188 2.69531L1.91406 9.20312C1.8151 9.27604 1.71094 9.34115 1.60156 9.39844C1.4974 9.45573 1.38542 9.48438 1.26562 9.48438C1.01562 9.48438 0.817708 9.41146 0.671875 9.26562C0.53125 9.11458 0.460938 8.9375 0.460938 8.73438ZM14.9297 4.94531V3.03125C14.9297 2.85938 14.9818 2.72135 15.0859 2.61719C15.1953 2.50781 15.3359 2.45312 15.5078 2.45312H16.5703C16.7422 2.45312 16.8802 2.50781 16.9844 2.61719C17.0885 2.72135 17.1406 2.85938 17.1406 3.03125V6.80469L14.9297 4.94531Z" fill="white"/>
</svg>
