<svg width="19" height="20" viewBox="0 0 19 20" fill="none" xmlns="http://www.w3.org/2000/svg">
<path d="M4.78125 16.6641C3.33594 16.6641 2.66406 15.9844 2.66406 14.5547V12.8828C2.66406 12.7266 2.625 12.6172 2.51562 12.5078L1.33594 11.3203C0.320312 10.3047 0.3125 9.35156 1.33594 8.33594L2.51562 7.14844C2.625 7.03906 2.66406 6.92969 2.66406 6.78125V5.10938C2.66406 3.65625 3.33594 2.99219 4.78125 2.99219H6.45312C6.60156 2.99219 6.71094 2.95312 6.82031 2.84375L8.00781 1.66406C9.03125 0.648438 9.97656 0.640625 10.9922 1.66406L12.1797 2.84375C12.2891 2.95312 12.3984 2.99219 12.5469 2.99219H14.2188C15.6641 2.99219 16.3359 3.67188 16.3359 5.10938V6.78125C16.3359 6.92969 16.375 7.03906 16.4844 7.14844L17.6641 8.33594C18.6797 9.35156 18.6875 10.3047 17.6641 11.3203L16.4844 12.5078C16.3828 12.6172 16.3359 12.7266 16.3359 12.8828V14.5547C16.3359 15.9922 15.6562 16.6641 14.2188 16.6641H12.5469C12.3984 16.6641 12.2891 16.7031 12.1797 16.8203L10.9922 18C9.97656 19.0156 9.02344 19.0156 8.00781 18L6.82031 16.8203C6.71094 16.7031 6.60156 16.6641 6.45312 16.6641H4.78125ZM4.88281 15.25H6.92969C7.15625 15.25 7.33594 15.3125 7.5 15.4922L8.9375 16.9297C9.42969 17.4141 9.57031 17.4141 10.0625 16.9297L11.5 15.4922C11.6641 15.3125 11.8438 15.25 12.0781 15.25H14.1172C14.8047 15.25 14.9141 15.1406 14.9141 14.4531L14.9219 12.4062C14.9219 12.1719 14.9922 12 15.1562 11.8281L16.5938 10.3984C17.0859 9.90625 17.0859 9.75781 16.5938 9.26562L15.1562 7.83594C14.9922 7.66406 14.9219 7.49219 14.9141 7.25781V5.21094C14.9141 4.52344 14.8047 4.41406 14.1172 4.41406H12.0781C11.8438 4.41406 11.6641 4.35156 11.5 4.17188L10.0625 2.73438C9.57031 2.25 9.42969 2.25 8.9375 2.73438L7.5 4.17188C7.33594 4.35156 7.15625 4.41406 6.92969 4.41406H4.88281C4.1875 4.41406 4.08594 4.51562 4.08594 5.21094V7.25781C4.08594 7.49219 4.00781 7.66406 3.84375 7.83594L2.40625 9.26562C1.91406 9.75781 1.91406 9.90625 2.40625 10.3984L3.84375 11.8281C4.00781 12 4.08594 12.1719 4.08594 12.4062V14.4531C4.08594 15.1406 4.19531 15.25 4.88281 15.25ZM8.66406 13.5469C8.375 13.5469 8.15625 13.4219 7.9375 13.1562L6.09375 10.8984C5.96094 10.7344 5.89062 10.5625 5.89062 10.375C5.89062 9.99219 6.19531 9.67969 6.57812 9.67969C6.80469 9.67969 6.99219 9.76562 7.17969 10.0078L8.64062 11.8594L11.7266 6.90625C11.8828 6.64844 12.0938 6.51562 12.3281 6.51562C12.6953 6.51562 13.0391 6.77344 13.0391 7.16406C13.0391 7.33594 12.9531 7.52344 12.8516 7.6875L9.35156 13.1484C9.1875 13.4062 8.94531 13.5469 8.66406 13.5469Z" fill="white"/>
</svg>
