<svg width="19" height="16" viewBox="0 0 19 16" fill="none" xmlns="http://www.w3.org/2000/svg">
<path d="M2.80469 15.1562C1.11719 15.1562 0.242188 14.2891 0.242188 12.625V3.10938C0.242188 1.4375 1.11719 0.578125 2.80469 0.578125H16.1875C17.875 0.578125 18.75 1.44531 18.75 3.10938V12.625C18.75 14.2891 17.875 15.1562 16.1875 15.1562H2.80469ZM2.89844 13.625H16.0938C16.8125 13.625 17.2188 13.25 17.2188 12.4922V3.24219C17.2188 2.48438 16.8125 2.10156 16.0938 2.10156H2.89844C2.17188 2.10156 1.77344 2.48438 1.77344 3.24219V12.4922C1.77344 13.25 2.17188 13.625 2.89844 13.625ZM3.78125 6.73438L5.54688 5.67188L3.78125 4.60938C3.10156 4.20312 3.67969 3.17188 4.42188 3.64062L6.625 5.02344C7.08594 5.3125 7.10156 6.02344 6.625 6.32812L4.42188 7.71094C3.67969 8.17188 3.10938 7.14844 3.78125 6.73438ZM7.0625 7.66406C7.0625 7.34375 7.3125 7.10156 7.625 7.10156H10.5547C10.8672 7.10156 11.1094 7.34375 11.1094 7.66406C11.1094 7.96875 10.8672 8.21875 10.5547 8.21875H7.625C7.3125 8.21875 7.0625 7.96875 7.0625 7.66406Z" fill="#8E8E93"/>
</svg>
