<svg width="21" height="19" viewBox="0 0 21 19" fill="none" xmlns="http://www.w3.org/2000/svg">
<path d="M0.015625 16.3828V5.10156C0.015625 4.45573 0.174479 3.97135 0.492188 3.64844C0.815104 3.32031 1.29688 3.15625 1.9375 3.15625H3.0625C3.70833 3.15625 4.1901 3.32031 4.50781 3.64844C4.82552 3.97135 4.98438 4.45573 4.98438 5.10156V5.98438C5.15104 5.94792 5.32292 5.92969 5.5 5.92969H8.78125C8.95833 5.92969 9.1276 5.94792 9.28906 5.98438V2.89844C9.28906 2.2526 9.44792 1.76823 9.76562 1.44531C10.0885 1.11719 10.5729 0.953125 11.2188 0.953125H12.8516C13.4922 0.953125 13.9714 1.11719 14.2891 1.44531C14.612 1.76823 14.7734 2.2526 14.7734 2.89844V16.3828C14.7734 17.0234 14.612 17.5052 14.2891 17.8281C13.9714 18.1562 13.4922 18.3203 12.8516 18.3203H1.9375C1.29688 18.3203 0.815104 18.1562 0.492188 17.8281C0.174479 17.5052 0.015625 17.0234 0.015625 16.3828ZM1.48438 16.1875C1.48438 16.4062 1.53906 16.5703 1.64844 16.6797C1.76302 16.7891 1.93229 16.8438 2.15625 16.8438H3.50781V5.28906C3.50781 5.07552 3.45312 4.91146 3.34375 4.79688C3.23958 4.68229 3.07292 4.625 2.84375 4.625H2.15625C1.93229 4.625 1.76302 4.68229 1.64844 4.79688C1.53906 4.91146 1.48438 5.07552 1.48438 5.28906V16.1875ZM4.98438 16.8438H9.28906V8.05469C9.28906 7.84115 9.23438 7.67969 9.125 7.57031C9.02083 7.45573 8.85417 7.39844 8.625 7.39844H5.65625C5.43229 7.39844 5.26302 7.45573 5.14844 7.57031C5.03906 7.67969 4.98438 7.84115 4.98438 8.05469V16.8438ZM10.7656 16.8438H12.6328C12.8568 16.8438 13.0234 16.7891 13.1328 16.6797C13.2474 16.5703 13.3047 16.4062 13.3047 16.1875V3.08594C13.3047 2.8724 13.2474 2.70833 13.1328 2.59375C13.0234 2.47917 12.8568 2.42188 12.6328 2.42188H11.4375C11.2135 2.42188 11.0443 2.47917 10.9297 2.59375C10.8203 2.70833 10.7656 2.8724 10.7656 3.08594V16.8438ZM5.63281 8.85938C5.63281 8.71875 5.67969 8.60156 5.77344 8.50781C5.86719 8.40885 5.98958 8.35938 6.14062 8.35938H8.16406C8.3099 8.35938 8.42969 8.40885 8.52344 8.50781C8.6224 8.60156 8.67188 8.71875 8.67188 8.85938C8.67188 9 8.6224 9.11979 8.52344 9.21875C8.42969 9.31771 8.3099 9.36719 8.16406 9.36719H6.14062C5.99479 9.36719 5.8724 9.31771 5.77344 9.21875C5.67969 9.11979 5.63281 9 5.63281 8.85938ZM5.63281 15.3828C5.63281 15.2422 5.67969 15.125 5.77344 15.0312C5.8724 14.9323 5.99479 14.8828 6.14062 14.8828H8.16406C8.3099 14.8828 8.42969 14.9323 8.52344 15.0312C8.6224 15.125 8.67188 15.2422 8.67188 15.3828C8.67188 15.5234 8.6224 15.6432 8.52344 15.7422C8.42969 15.8411 8.3099 15.8906 8.16406 15.8906H6.14062C5.98958 15.8906 5.86719 15.8411 5.77344 15.7422C5.67969 15.6432 5.63281 15.5234 5.63281 15.3828ZM15.2031 16.6328L13.9297 5.22656C13.8516 4.58594 13.9531 4.09115 14.2344 3.74219C14.5156 3.39323 14.9792 3.17708 15.625 3.09375L16.5703 2.97656C17.2109 2.89323 17.7057 3 18.0547 3.29688C18.4089 3.58854 18.6198 4.05469 18.6875 4.69531L19.9609 16.1016C20.0286 16.737 19.9219 17.2292 19.6406 17.5781C19.3646 17.9323 18.9062 18.1484 18.2656 18.2266L17.3203 18.3438C16.6797 18.4271 16.1849 18.3203 15.8359 18.0234C15.487 17.7318 15.276 17.2682 15.2031 16.6328ZM16.6406 16.2734C16.6615 16.4922 16.7344 16.651 16.8594 16.75C16.9844 16.8542 17.1562 16.8906 17.375 16.8594L17.8906 16.7891C18.1146 16.763 18.2734 16.6875 18.3672 16.5625C18.4661 16.4427 18.5026 16.276 18.4766 16.0625L17.25 5.03906C17.2292 4.83073 17.1562 4.67448 17.0312 4.57031C16.9062 4.46615 16.7318 4.42969 16.5078 4.46094L16.0078 4.52344C15.7786 4.55469 15.6146 4.63281 15.5156 4.75781C15.4219 4.8776 15.388 5.04427 15.4141 5.25781L16.6406 16.2734Z" fill="#8E8E93"/>
</svg>
