<svg width="19" height="16" viewBox="0 0 19 16" fill="none" xmlns="http://www.w3.org/2000/svg">
<path d="M3.10938 15.0625C1.42188 15.0625 0.546875 14.1953 0.546875 12.5234V3C0.546875 1.35938 1.40625 0.507812 2.86719 0.507812H5.07812C5.89062 0.507812 6.29688 0.65625 6.84375 1.10938L7.29688 1.46875C7.72656 1.82031 8.05469 1.95312 8.61719 1.95312H15.8828C17.5703 1.95312 18.4453 2.82031 18.4453 4.49219V12.5234C18.4453 14.1953 17.5781 15.0625 16.0859 15.0625H3.10938ZM2.07812 3.13281V5.07812H16.9141V4.625C16.9141 3.85938 16.5156 3.48438 15.7969 3.48438H8.21094C7.39844 3.48438 6.97656 3.33594 6.4375 2.89062L5.98438 2.52344C5.54688 2.16406 5.22656 2.03906 4.67188 2.03906H3.17188C2.46875 2.03906 2.07812 2.41406 2.07812 3.13281ZM3.20312 13.5312H15.7969C16.5156 13.5312 16.9141 13.1562 16.9141 12.3984V6.42969H2.07812V12.3984C2.07812 13.1562 2.47656 13.5312 3.20312 13.5312Z" fill="#8E8E93"/>
</svg>
