<svg width="55" height="48" viewBox="0 0 55 48" fill="none" xmlns="http://www.w3.org/2000/svg">
<path d="M27.5234 26.1172C26.6901 26.1302 25.8372 26.026 24.9648 25.8047C24.1055 25.5833 23.1549 25.2383 22.1133 24.7695L2.89453 15.9805C2.25651 15.694 1.77474 15.2904 1.44922 14.7695C1.13672 14.2357 0.980469 13.6758 0.980469 13.0898C0.980469 12.5169 1.13672 11.9701 1.44922 11.4492C1.77474 10.9154 2.25651 10.5052 2.89453 10.2188L22.1133 1.42969C23.1549 0.960938 24.1055 0.615885 24.9648 0.394531C25.8372 0.173177 26.6901 0.0690104 27.5234 0.0820312C28.3568 0.0690104 29.2031 0.173177 30.0625 0.394531C30.9349 0.615885 31.8919 0.960938 32.9336 1.42969L52.1719 10.2188C52.8099 10.5052 53.2852 10.9154 53.5977 11.4492C53.9232 11.9701 54.0859 12.5169 54.0859 13.0898C54.0859 13.6758 53.9232 14.2357 53.5977 14.7695C53.2852 15.2904 52.8099 15.694 52.1719 15.9805L32.9336 24.7695C31.8919 25.2383 30.9349 25.5833 30.0625 25.8047C29.2031 26.026 28.3568 26.1302 27.5234 26.1172ZM27.5234 23.0312C28.1745 23.0312 28.832 22.9466 29.4961 22.7773C30.1732 22.5951 30.9284 22.3151 31.7617 21.9375L49.75 13.7539C50.0885 13.5977 50.2578 13.3763 50.2578 13.0898C50.2578 12.8164 50.0885 12.6016 49.75 12.4453L31.7617 4.26172C30.9284 3.88411 30.1732 3.61068 29.4961 3.44141C28.832 3.25911 28.1745 3.16797 27.5234 3.16797C26.8724 3.16797 26.2148 3.25911 25.5508 3.44141C24.8867 3.61068 24.138 3.88411 23.3047 4.26172L5.31641 12.4453C4.97786 12.6016 4.80859 12.8164 4.80859 13.0898C4.80859 13.3763 4.97786 13.5977 5.31641 13.7539L23.3047 21.9375C24.138 22.3151 24.8867 22.5951 25.5508 22.7773C26.2148 22.9466 26.8724 23.0312 27.5234 23.0312ZM8.59766 27.7773V17.4648H11.7422V27.7773C11.7422 28.793 12.1068 29.7695 12.8359 30.707C13.5781 31.6445 14.6393 32.4844 16.0195 33.2266C17.3997 33.9557 19.0599 34.5352 21 34.9648C22.9531 35.3945 25.1276 35.6094 27.5234 35.6094C29.9323 35.6094 32.1068 35.3945 34.0469 34.9648C35.987 34.5352 37.6471 33.9557 39.0273 33.2266C40.4076 32.4844 41.4688 31.6445 42.2109 30.707C42.9531 29.7695 43.3242 28.793 43.3242 27.7773V17.4648H46.4688V27.7773C46.4688 29.2357 46.0195 30.6159 45.1211 31.918C44.2357 33.2201 42.9661 34.3659 41.3125 35.3555C39.6589 36.3581 37.6667 37.1393 35.3359 37.6992C33.0052 38.2721 30.401 38.5586 27.5234 38.5586C24.6458 38.5586 22.0417 38.2721 19.7109 37.6992C17.3932 37.1393 15.401 36.3581 13.7344 35.3555C12.0807 34.3659 10.8112 33.2201 9.92578 31.918C9.04036 30.6159 8.59766 29.2357 8.59766 27.7773ZM27.6016 15.3164C26.9115 15.3164 26.2474 15.2188 25.6094 15.0234C24.9714 14.8281 24.4505 14.5677 24.0469 14.2422C23.6432 13.9036 23.4414 13.5195 23.4414 13.0898C23.4414 12.6732 23.6432 12.3021 24.0469 11.9766C24.4505 11.651 24.9714 11.3971 25.6094 11.2148C26.2474 11.0195 26.9115 10.9219 27.6016 10.9219C28.3047 10.9219 28.9688 11.0195 29.5938 11.2148C30.2318 11.3971 30.7461 11.651 31.1367 11.9766C31.5404 12.3021 31.7422 12.6732 31.7422 13.0898C31.7422 13.5195 31.5404 13.9036 31.1367 14.2422C30.7461 14.5677 30.2318 14.8281 29.5938 15.0234C28.9688 15.2188 28.3047 15.3164 27.6016 15.3164ZM15.7266 20.4727L13.1875 19.125L26.2344 12.3281L27.3086 14.3398L15.7266 20.4727ZM13.1875 39.6328V19.2227L15.7266 20.4727V39.6328H13.1875ZM11.6445 40.0234C11.6445 39.2552 11.8724 38.6367 12.3281 38.168C12.7969 37.7122 13.4154 37.4844 14.1836 37.4844H14.7109C15.4792 37.4844 16.0911 37.7122 16.5469 38.168C17.0156 38.6367 17.25 39.2552 17.25 40.0234V45.1602C17.25 45.9284 17.0156 46.5404 16.5469 46.9961C16.0911 47.4648 15.4792 47.6992 14.7109 47.6992H14.1836C13.4154 47.6992 12.7969 47.4648 12.3281 46.9961C11.8724 46.5404 11.6445 45.9284 11.6445 45.1602V40.0234Z" fill="#FF2D55"/>
</svg>
