<svg width="18" height="21" viewBox="0 0 18 21" fill="none" xmlns="http://www.w3.org/2000/svg">
<path d="M1.36719 9.38281C1.1276 9.38281 0.921875 9.29948 0.75 9.13281C0.578125 8.96094 0.492188 8.75 0.492188 8.5C0.492188 8.26042 0.578125 8.05729 0.75 7.89062C0.921875 7.71875 1.1276 7.63281 1.36719 7.63281C1.61198 7.63281 1.82031 7.71875 1.99219 7.89062C2.16406 8.05729 2.25 8.26042 2.25 8.5C2.25 8.75 2.16406 8.96094 1.99219 9.13281C1.82031 9.29948 1.61198 9.38281 1.36719 9.38281ZM3.29688 3.74219C3.05729 3.74219 2.85156 3.65885 2.67969 3.49219C2.50781 3.32031 2.42188 3.11198 2.42188 2.86719C2.42188 2.6224 2.50781 2.41667 2.67969 2.25C2.85156 2.07812 3.05729 1.99219 3.29688 1.99219C3.54688 1.99219 3.75521 2.07812 3.92188 2.25C4.09375 2.41667 4.17969 2.6224 4.17969 2.86719C4.17969 3.11198 4.09375 3.32031 3.92188 3.49219C3.75521 3.65885 3.54688 3.74219 3.29688 3.74219ZM8.95312 1.78125C8.70833 1.78125 8.5 1.69531 8.32812 1.52344C8.16146 1.35156 8.07812 1.14583 8.07812 0.90625C8.07812 0.661458 8.16146 0.453125 8.32812 0.28125C8.5 0.109375 8.70833 0.0234375 8.95312 0.0234375C9.19271 0.0234375 9.39844 0.109375 9.57031 0.28125C9.74219 0.453125 9.82812 0.661458 9.82812 0.90625C9.82812 1.14583 9.74219 1.35156 9.57031 1.52344C9.39844 1.69531 9.19271 1.78125 8.95312 1.78125ZM14.6016 3.74219C14.3568 3.74219 14.1484 3.65885 13.9766 3.49219C13.8047 3.32031 13.7188 3.11198 13.7188 2.86719C13.7188 2.6224 13.8047 2.41667 13.9766 2.25C14.1484 2.07812 14.3568 1.99219 14.6016 1.99219C14.8411 1.99219 15.0469 2.07812 15.2188 2.25C15.3906 2.41667 15.4766 2.6224 15.4766 2.86719C15.4766 3.11198 15.3906 3.32031 15.2188 3.49219C15.0469 3.65885 14.8411 3.74219 14.6016 3.74219ZM16.5391 9.38281C16.2891 9.38281 16.0781 9.29948 15.9062 9.13281C15.7396 8.96094 15.6562 8.75 15.6562 8.5C15.6562 8.26042 15.7396 8.05729 15.9062 7.89062C16.0781 7.71875 16.2891 7.63281 16.5391 7.63281C16.7786 7.63281 16.9818 7.71875 17.1484 7.89062C17.3203 8.05729 17.4062 8.26042 17.4062 8.5C17.4062 8.75 17.3203 8.96094 17.1484 9.13281C16.9818 9.29948 16.7786 9.38281 16.5391 9.38281ZM8.95312 3.39062C9.64583 3.39062 10.2943 3.51042 10.8984 3.75C11.5078 3.98438 12.0417 4.3099 12.5 4.72656C12.9583 5.14323 13.3151 5.63281 13.5703 6.19531C13.8255 6.75781 13.9531 7.36458 13.9531 8.01562C13.9531 8.57292 13.8958 9.07031 13.7812 9.50781C13.6719 9.94531 13.526 10.3724 13.3438 10.7891C13.1667 11.2057 12.9792 11.6615 12.7812 12.1562C12.5885 12.651 12.4062 13.2344 12.2344 13.9062C12.0677 14.5729 11.9427 15.3828 11.8594 16.3359C11.8438 16.513 11.7839 16.6536 11.6797 16.7578C11.5755 16.862 11.4297 16.9141 11.2422 16.9141H6.66406C6.47656 16.9141 6.33073 16.862 6.22656 16.7578C6.1224 16.6536 6.0625 16.513 6.04688 16.3359C5.95833 15.3828 5.82812 14.5729 5.65625 13.9062C5.48958 13.2344 5.3099 12.651 5.11719 12.1562C4.92448 11.6615 4.73958 11.2057 4.5625 10.7891C4.38542 10.3724 4.23958 9.94531 4.125 9.50781C4.01042 9.07031 3.95312 8.57292 3.95312 8.01562C3.95312 7.36458 4.08073 6.75781 4.33594 6.19531C4.59635 5.63281 4.95312 5.14323 5.40625 4.72656C5.86458 4.30469 6.39583 3.97656 7 3.74219C7.60417 3.50781 8.25521 3.39062 8.95312 3.39062ZM8.95312 4.73438C8.45312 4.73438 7.98177 4.8151 7.53906 4.97656C7.10156 5.13802 6.71354 5.36458 6.375 5.65625C6.04167 5.94792 5.77865 6.29427 5.58594 6.69531C5.39323 7.09635 5.29688 7.53646 5.29688 8.01562C5.29688 8.41146 5.34375 8.76823 5.4375 9.08594C5.53125 9.40365 5.65365 9.73438 5.80469 10.0781C5.95573 10.4167 6.11979 10.8203 6.29688 11.2891C6.47396 11.7526 6.64844 12.3281 6.82031 13.0156C6.99219 13.7031 7.14323 14.5573 7.27344 15.5781H10.6328C10.7578 14.5573 10.9062 13.7031 11.0781 13.0156C11.25 12.3281 11.4245 11.7526 11.6016 11.2891C11.7839 10.8203 11.9505 10.4167 12.1016 10.0781C12.2578 9.73438 12.3828 9.40365 12.4766 9.08594C12.5703 8.76823 12.6172 8.41146 12.6172 8.01562C12.6172 7.53646 12.5182 7.09635 12.3203 6.69531C12.1276 6.29427 11.862 5.94792 11.5234 5.65625C11.1901 5.36458 10.8021 5.13802 10.3594 4.97656C9.91667 4.8151 9.44792 4.73438 8.95312 4.73438ZM6.60938 18.6172C6.46875 18.6172 6.35156 18.5703 6.25781 18.4766C6.16406 18.3776 6.11719 18.2604 6.11719 18.125C6.11719 17.9844 6.16406 17.8672 6.25781 17.7734C6.35156 17.6797 6.46875 17.6328 6.60938 17.6328H11.2969C11.4375 17.6328 11.5547 17.6797 11.6484 17.7734C11.7474 17.8672 11.7969 17.9844 11.7969 18.125C11.7969 18.2604 11.7474 18.3776 11.6484 18.4766C11.5547 18.5703 11.4375 18.6172 11.2969 18.6172H6.60938ZM8.95312 20.8047C8.36458 20.8047 7.85677 20.6693 7.42969 20.3984C7.00781 20.1276 6.78125 19.7734 6.75 19.3359H11.1484C11.1172 19.7734 10.8906 20.1276 10.4688 20.3984C10.0469 20.6693 9.54167 20.8047 8.95312 20.8047Z" fill="#8E8E93"/>
</svg>
