<svg width="14" height="14" viewBox="0 0 14 14" fill="none" xmlns="http://www.w3.org/2000/svg">
<path d="M-0.0078125 7.35938C-0.0078125 7.11979 0.078125 6.91406 0.25 6.74219C0.421875 6.5651 0.627604 6.47656 0.867188 6.47656H5.65625V1.69531C5.65625 1.45573 5.74219 1.25 5.91406 1.07812C6.08594 0.90625 6.29167 0.820312 6.53125 0.820312C6.77604 0.820312 6.98438 0.90625 7.15625 1.07812C7.32812 1.25 7.41406 1.45573 7.41406 1.69531V6.47656H12.1953C12.4349 6.47656 12.6406 6.5651 12.8125 6.74219C12.9844 6.91406 13.0703 7.11979 13.0703 7.35938C13.0703 7.60417 12.9844 7.8125 12.8125 7.98438C12.6406 8.15104 12.4349 8.23438 12.1953 8.23438H7.41406V13.0312C7.41406 13.2656 7.32812 13.4688 7.15625 13.6406C6.98438 13.8125 6.77604 13.8984 6.53125 13.8984C6.29167 13.8984 6.08594 13.8125 5.91406 13.6406C5.74219 13.4688 5.65625 13.2656 5.65625 13.0312V8.23438H0.867188C0.627604 8.23438 0.421875 8.15104 0.25 7.98438C0.078125 7.8125 -0.0078125 7.60417 -0.0078125 7.35938Z" fill="#8E8E93"/>
</svg>
